<svg width="28" height="27" viewBox="0 0 28 27" fill="none" xmlns="http://www.w3.org/2000/svg">
<path id="facebook" d="M24.1853 0H3.1853C1.5353 0 0.185303 1.35 0.185303 3V24C0.185303 25.6515 1.5353 27 3.1853 27H13.6853V16.5H10.6853V12.7875H13.6853V9.7125C13.6853 6.4665 15.5033 4.1865 19.3343 4.1865L22.0388 4.1895V8.097H20.2433C18.7523 8.097 18.1853 9.216 18.1853 10.254V12.789H22.0373L21.1853 16.5H18.1853V27H24.1853C25.8353 27 27.1853 25.6515 27.1853 24V3C27.1853 1.35 25.8353 0 24.1853 0Z" fill="black"/>
</svg>
