<svg width="27" height="27" viewBox="0 0 27 27" fill="none" xmlns="http://www.w3.org/2000/svg">
<path id="instagram" d="M13.4994 9.00643C11.0117 9.00643 9.00603 11.0314 9.00603 13.5C9.00603 15.9686 11.0309 17.9936 13.4994 17.9936C15.9679 17.9936 17.9928 15.9686 17.9928 13.5C17.9928 11.0314 15.9679 9.00643 13.4994 9.00643ZM26.9988 13.5C26.9988 11.6293 26.9988 9.79714 26.9024 7.92643C26.8059 5.76643 26.3045 3.83786 24.7232 2.27571C23.1418 0.694286 21.2326 0.192857 19.0727 0.0964285C17.2021 -9.33983e-08 15.37 0 13.4994 0C11.6288 0 9.79671 -9.33983e-08 7.92608 0.0964285C5.76617 0.192857 3.83769 0.694286 2.27561 2.27571C0.694255 3.85714 0.192848 5.76643 0.0964242 7.92643C-9.33942e-08 9.79714 0 11.6293 0 13.5C0 15.3707 -9.33942e-08 17.2029 0.0964242 19.0736C0.192848 21.2336 0.694255 23.1621 2.27561 24.7243C3.85697 26.3057 5.76617 26.8071 7.92608 26.9036C9.79671 27 11.6288 27 13.4994 27C15.37 27 17.2021 27 19.0727 26.9036C21.2326 26.8071 23.1611 26.3057 24.7232 24.7243C26.3045 23.1429 26.8059 21.2336 26.9024 19.0736C27.0181 17.2221 26.9988 15.3707 26.9988 13.5ZM13.4994 20.4236C9.66171 20.4236 6.57613 17.3379 6.57613 13.5C6.57613 9.66214 9.66171 6.57643 13.4994 6.57643C17.3371 6.57643 20.4227 9.66214 20.4227 13.5C20.4227 17.3379 17.3371 20.4236 13.4994 20.4236ZM20.7119 7.90714C19.8248 7.90714 19.092 7.19357 19.092 6.28714C19.092 5.38071 19.8055 4.66714 20.7119 4.66714C21.6183 4.66714 22.3319 5.38071 22.3319 6.28714C22.3367 6.49839 22.2982 6.70839 22.2186 6.90412C22.1389 7.09985 22.02 7.27714 21.869 7.425C21.7212 7.57596 21.5439 7.69493 21.3482 7.77455C21.1524 7.85417 20.9425 7.89274 20.7312 7.88786L20.7119 7.90714Z" fill="black"/>
</svg>
